<svg width="312" height="312" viewBox="0 0 312 312" fill="none" xmlns="http://www.w3.org/2000/svg">
<rect x="0.5" y="0.5" width="311" height="311" rx="7.5" stroke="#AEAFB4" stroke-dasharray="30 30"/>
<g clip-path="url(#clip0_1_571)">
<path d="M185.167 135.167V147.625C185.167 147.625 176.875 147.667 176.833 147.625V135.167H164.333C164.333 135.167 164.375 126.875 164.333 126.833H176.833V114.333H185.167V126.833H197.667V135.167H185.167ZM172.667 151.833V139.333H160.167V126.833H126.833C122.25 126.833 118.5 130.583 118.5 135.167V185.167C118.5 189.75 122.25 193.5 126.833 193.5H176.833C181.417 193.5 185.167 189.75 185.167 185.167V151.833H172.667ZM126.833 185.167L139.333 168.5L147.667 181L160.167 164.333L176.833 185.167H126.833Z" fill="#AEAFB4"/>
</g>
<defs>
<clipPath id="clip0_1_571">
<rect x="106" y="106" width="100" height="100" rx="8" fill="white"/>
</clipPath>
</defs>
</svg>
